# xmcd CD database file
#
# Track frame offsets:
#	150
#	18580
#	38850
#	56192
#	74375
#	91860
#	103570
#
# Disc length: 1678 seconds
#
# Revision: 0
# Processed by: cddbd v1.5.1PL0 Copyright (c) Steve Scherf et al.
# Submitted via: CDex 1.51
#
DISCID=59068c07
DTITLE=神森徹也 - GREATEST HITS
DYEAR=1995
DGENRE=JPop
TTITLE0=君を好きになるように
TTITLE1=あいうえお
TTITLE2=なんだかんだ
TTITLE3=これで最後のことば
TTITLE4=素敵に適任
TTITLE5=レミレミ
TTITLE6=とぎすまされた心で
EXTD=YEAR: 1995
EXTT0=
EXTT1=
EXTT2=
EXTT3=
EXTT4=
EXTT5=
EXTT6=
PLAYORDER=
